<svg width="25" height="18" viewBox="0 0 25 18" fill="none" xmlns="http://www.w3.org/2000/svg">
<path d="M4.34057 1.98495C3.88648 1.53086 3.88648 0.794646 4.34057 0.340563C4.79466 -0.113521 5.53088 -0.113521 5.98497 0.340563L20.429 14.7844C20.8831 15.2385 20.8831 15.9747 20.429 16.4288C19.9749 16.8829 19.2387 16.8829 18.7846 16.4288L4.34057 1.98495Z" fill="#317042"/>
<path d="M19.015 0.571224C19.4691 0.11714 20.2053 0.117139 20.6594 0.571223C21.1135 1.02531 21.1135 1.76152 20.6594 2.21561L6.2154 16.6594C5.76131 17.1135 5.02508 17.1135 4.57099 16.6594C4.1169 16.2054 4.1169 15.4691 4.57099 15.0151L19.015 0.571224Z" fill="#317042"/>
</svg>
