<svg width="25" height="18" viewBox="0 0 25 18" fill="none" xmlns="http://www.w3.org/2000/svg">
<path fill-rule="evenodd" clip-rule="evenodd" d="M2.34082 0C1.04802 0 0 1.11157 0 2.48276V15.5172C0 16.8884 1.04802 18 2.34082 18H22.6592C23.952 18 25 16.8884 25 15.5172V2.48276C25 1.11157 23.952 0 22.6592 0H2.34082ZM3.51124 2.48276C2.86484 2.48276 2.34082 3.03854 2.34082 3.72414V14.2759C2.34082 14.9615 2.86484 15.5172 3.51124 15.5172H21.4888C22.1352 15.5172 22.6592 14.9615 22.6592 14.2759V3.72414C22.6592 3.03854 22.1352 2.48276 21.4888 2.48276H3.51124Z" fill="#317042"/>
</svg>
