<svg width="25" height="18" viewBox="0 0 25 18" fill="none" xmlns="http://www.w3.org/2000/svg">
<path fill-rule="evenodd" clip-rule="evenodd" d="M2.38095 3.6C1.06599 3.6 0 4.67452 0 6V15.6C0 16.9255 1.06599 18 2.38095 18H19.0476C20.3626 18 21.4286 16.9255 21.4286 15.6V6C21.4286 4.67452 20.3626 3.6 19.0476 3.6H2.38095ZM3.57143 6C2.91395 6 2.38095 6.53726 2.38095 7.2V14.4C2.38095 15.0627 2.91395 15.6 3.57143 15.6H17.8571C18.5146 15.6 19.0476 15.0627 19.0476 14.4V7.2C19.0476 6.53726 18.5146 6 17.8571 6H3.57143Z" fill="#317042"/>
<path d="M5.95238 0C5.05108 0 4.26674 0.504809 3.86247 1.24923C3.54676 1.83057 4.10442 2.4 4.7619 2.4H20.2381C22.619 2.4 22.619 2.4 22.619 4.8V13.2C22.619 13.8627 23.184 14.4249 23.7607 14.1066C24.4992 13.6991 25 12.9085 25 12V2.4C25 1.07452 23.934 0 22.619 0H5.95238Z" fill="#317042"/>
</svg>
